<?xml version="1.0" encoding="UTF-8" standalone="no"?>
<!DOCTYPE svg PUBLIC "-//W3C//DTD SVG 1.1//EN" "http://www.w3.org/Graphics/SVG/1.1/DTD/svg11.dtd">
<svg width="100%" height="100%" viewBox="0 0 579 207" version="1.1" xmlns="http://www.w3.org/2000/svg" xmlns:xlink="http://www.w3.org/1999/xlink" xml:space="preserve" xmlns:serif="http://www.serif.com/" style="fill-rule:evenodd;clip-rule:evenodd;stroke-linejoin:round;stroke-miterlimit:2;">
    <path d="M39.367,76.508l25.223,-76.508l13.995,0l-0,121.843l-14.581,0l-0,-92.262l1.424,5.363l-20.949,66.955l-10.224,-0l-20.866,-65.279l1.928,-7.039l-0,92.262l-15.168,0l0,-121.843l14.581,0l24.637,76.508Z" style="fill:#fff;fill-rule:nonzero;"/>
    <path d="M112.781,123.1c-7.933,-0 -14.106,-2.207 -18.519,-6.62c-4.414,-4.413 -6.62,-10.615 -6.62,-18.603l-0,-39.721c-0,-7.933 2.206,-14.05 6.62,-18.352c4.413,-4.301 10.586,-6.452 18.519,-6.452c7.933,-0 14.05,2.151 18.352,6.452c4.302,4.302 6.453,10.419 6.453,18.352l-0,39.972c-0,7.933 -2.151,14.078 -6.453,18.436c-4.302,4.357 -10.419,6.536 -18.352,6.536Zm-0.167,-15.503c2.849,0 5.069,-0.88 6.662,-2.639c1.592,-1.76 2.388,-4.26 2.388,-7.5l-0,-38.631c-0,-3.129 -0.796,-5.573 -2.388,-7.333c-1.593,-1.76 -3.813,-2.639 -6.662,-2.639c-2.794,-0 -5,0.879 -6.621,2.639c-1.62,1.76 -2.43,4.204 -2.43,7.333l0,38.631c0,3.24 0.81,5.74 2.43,7.5c1.621,1.759 3.827,2.639 6.621,2.639Z" style="fill:#fff;fill-rule:nonzero;"/>
    <path d="M182.173,121.843l0,-121.843l15.922,0l-0,121.843l-15.922,0Zm-17.179,1.508c-6.089,0 -10.81,-2.262 -14.162,-6.787c-3.352,-4.525 -5.028,-10.922 -5.028,-19.19l0,-37.123c0,-8.547 1.676,-15.167 5.028,-19.86c3.352,-4.693 8.073,-7.039 14.162,-7.039c3.967,-0 7.598,1.341 10.894,4.022c3.296,2.682 5.978,6.453 8.045,11.313l-1.76,12.402c0,-2.737 -0.391,-5.056 -1.173,-6.955c-0.782,-1.9 -1.941,-3.366 -3.478,-4.4c-1.536,-1.033 -3.394,-1.55 -5.572,-1.55c-3.185,0 -5.685,1.131 -7.5,3.394c-1.816,2.263 -2.724,5.461 -2.724,9.595l0,35.53c0,3.743 0.908,6.648 2.724,8.716c1.815,2.067 4.315,3.1 7.5,3.1c2.178,0 4.036,-0.489 5.572,-1.466c1.537,-0.978 2.696,-2.403 3.478,-4.274c0.782,-1.872 1.173,-4.12 1.173,-6.746l1.173,12.151c-1.564,4.804 -3.938,8.533 -7.123,11.187c-3.184,2.654 -6.927,3.98 -11.229,3.98Z" style="fill:#fff;fill-rule:nonzero;"/>
    <path d="M234.47,123.1c-8.38,-0 -14.888,-2.514 -19.525,-7.542c-4.637,-5.028 -6.955,-12.123 -6.955,-21.285l-0,-30.419c-0,-9.72 2.262,-17.234 6.787,-22.541c4.525,-5.308 10.866,-7.961 19.023,-7.961c8.324,-0 14.748,2.458 19.273,7.374c4.525,4.916 6.788,11.872 6.788,20.866l-0,22.961l-40.726,-0l-0,-13.157l25.475,0l-0,-9.469c-0,-4.525 -0.936,-8.017 -2.808,-10.475c-1.871,-2.458 -4.539,-3.687 -8.002,-3.687c-3.352,0 -5.95,1.313 -7.794,3.939c-1.843,2.625 -2.765,6.368 -2.765,11.229l0,31.759c0,4.246 0.978,7.556 2.933,9.93c1.955,2.375 4.721,3.562 8.296,3.562c3.296,-0 5.852,-0.88 7.668,-2.64c1.815,-1.76 2.723,-4.26 2.723,-7.5l0,-0.586l15.251,-0l0,0.586c0,7.933 -2.234,14.092 -6.704,18.478c-4.469,4.385 -10.782,6.578 -18.938,6.578Z" style="fill:#fff;fill-rule:nonzero;"/>
    <path d="M285.929,0l-0,98.798c-0,2.514 0.545,4.47 1.634,5.866c1.089,1.397 2.668,2.095 4.735,2.095l4.776,0l0,15.084l-6.704,0c-6.424,0 -11.424,-2.011 -15,-6.033c-3.575,-4.023 -5.363,-9.693 -5.363,-17.012l0,-98.798l15.922,0Z" style="fill:#fff;fill-rule:nonzero;"/>
    <path d="M318.701,0l-0,98.798c-0,2.514 0.545,4.47 1.634,5.866c1.089,1.397 2.668,2.095 4.735,2.095l4.776,0l0,15.084l-6.704,0c-6.424,0 -11.424,-2.011 -15,-6.033c-3.575,-4.023 -5.363,-9.693 -5.363,-17.012l0,-98.798l15.922,0Z" style="fill:#fff;fill-rule:nonzero;"/>
    <path d="M367.478,123.1c-4.078,-0 -7.639,-1.299 -10.684,-3.897c-3.045,-2.597 -5.209,-6.271 -6.494,-11.019l1.173,-13.492c-0,2.905 0.405,5.391 1.215,7.458c0.81,2.067 1.969,3.646 3.478,4.735c1.508,1.089 3.351,1.634 5.53,1.634c3.185,0 5.685,-1.243 7.5,-3.729c1.816,-2.486 2.724,-5.964 2.724,-10.433l-0,-32.681c-0,-4.302 -0.908,-7.668 -2.724,-10.098c-1.815,-2.43 -4.315,-3.645 -7.5,-3.645c-2.179,-0 -4.022,0.53 -5.53,1.592c-1.509,1.061 -2.668,2.584 -3.478,4.567c-0.81,1.983 -1.215,4.399 -1.215,7.249l-1.76,-12.067c1.844,-5.084 4.427,-9.009 7.751,-11.774c3.324,-2.766 6.942,-4.148 10.852,-4.148c6.257,-0 11.076,2.402 14.456,7.206c3.379,4.805 5.069,11.621 5.069,20.447l0,33.939c0,8.938 -1.773,15.866 -5.321,20.782c-3.547,4.916 -8.561,7.374 -15.042,7.374Zm-31.927,-1.257l0,-121.843l15.922,0l-0,121.843l-15.922,0Z" style="fill:#fff;fill-rule:nonzero;"/>
    <path d="M433.77,121.843l-0,-63.603c-0,-3.52 -0.936,-6.243 -2.808,-8.17c-1.871,-1.928 -4.483,-2.891 -7.835,-2.891c-2.905,-0 -5.195,0.963 -6.871,2.891c-1.676,1.927 -2.514,4.65 -2.514,8.17l-15.503,-0c0,-7.933 2.207,-14.064 6.62,-18.394c4.414,-4.329 10.643,-6.494 18.687,-6.494c8.157,-0 14.483,2.165 18.981,6.494c4.497,4.33 6.745,10.461 6.745,18.394l0,63.603l-15.502,0Zm-15.838,1.257c-7.095,-0 -12.444,-2.025 -16.048,-6.075c-3.603,-4.051 -5.405,-10.154 -5.405,-18.31c0,-9.777 2.249,-17.081 6.746,-21.914c4.497,-4.832 11.215,-7.248 20.154,-7.248l11.145,-0l1.173,14.245l-12.235,0c-3.91,0 -6.843,1.244 -8.798,3.73c-1.956,2.486 -2.933,6.215 -2.933,11.187c-0,3.407 0.852,5.949 2.555,7.625c1.704,1.676 4.26,2.514 7.668,2.514c3.967,0 6.927,-1.103 8.883,-3.31c1.955,-2.206 2.933,-5.517 2.933,-9.93l1.759,8.045c-0.055,4.301 -0.74,7.905 -2.053,10.81c-1.312,2.905 -3.268,5.07 -5.866,6.494c-2.597,1.425 -5.824,2.137 -9.678,2.137Z" style="fill:#fff;fill-rule:nonzero;"/>
    <path d="M460.843,121.843l0,-121.843l15.922,0l-0,121.843l-15.922,0Zm37.207,0l-0,-60.419c-0,-4.469 -0.88,-7.793 -2.64,-9.972c-1.76,-2.178 -4.427,-3.268 -8.003,-3.268c-3.575,0 -6.243,1.131 -8.002,3.394c-1.76,2.263 -2.64,5.684 -2.64,10.265l-1.76,-12.318c2.011,-5.531 4.749,-9.609 8.212,-12.235c3.464,-2.625 7.375,-3.938 11.732,-3.938c6.145,-0 10.852,2.011 14.12,6.033c3.268,4.023 4.903,9.833 4.903,17.43l-0,65.028l-15.922,0Z" style="fill:#fff;fill-rule:nonzero;"/>
    <path d="M525.542,121.843l0,-86.983l15.922,0l0,86.983l-15.922,0Zm37.207,0l-0,-60.335c-0,-4.469 -0.88,-7.807 -2.64,-10.014c-1.759,-2.207 -4.427,-3.31 -8.002,-3.31c-3.576,0 -6.243,1.145 -8.003,3.436c-1.76,2.29 -2.64,5.754 -2.64,10.391l-1.76,-12.486c2.012,-5.531 4.749,-9.609 8.213,-12.235c3.463,-2.625 7.374,-3.938 11.731,-3.938c6.146,-0 10.852,2.011 14.12,6.033c3.269,4.023 4.903,9.833 4.903,17.43l-0,65.028l-15.922,0Z" style="fill:#fff;fill-rule:nonzero;"/>
    <path d="M3.843,191.708l0,-5.273l7.764,-0c1.016,-0 1.797,-0.304 2.344,-0.913c0.547,-0.608 0.82,-1.466 0.82,-2.574l0,-25.078c0,-1.107 -0.273,-1.965 -0.82,-2.573c-0.547,-0.609 -1.328,-0.913 -2.344,-0.913l-7.764,0l0,-5.273l7.588,-0c2.852,-0 5.049,0.771 6.592,2.314c1.543,1.543 2.315,3.74 2.315,6.592l-0,24.785c-0,1.887 -0.352,3.496 -1.055,4.828c-0.703,1.332 -1.72,2.345 -3.051,3.038c-1.331,0.694 -2.941,1.04 -4.83,1.04l-7.559,0Zm-3.544,0l-0,-42.597l5.566,-0l-0,42.597l-5.566,0Z" style="fill:#fff;fill-rule:nonzero;"/>
    <path d="M78.188,191.708l9.844,-42.597l5.098,-0l9.844,42.597l-5.977,0l-6.416,-33.867l-6.416,33.867l-5.977,0Zm6.299,-9.287l0,-5.244l12.627,-0l0,5.244l-12.627,0Z" style="fill:#fff;fill-rule:nonzero;"/>
    <path d="M166.039,191.708l0,-39.111l5.567,-0l-0,39.111l-5.567,0Zm-7.558,-37.324l-0,-5.273l20.683,-0l0,5.273l-20.683,0Z" style="fill:#fff;fill-rule:nonzero;"/>
    <path d="M234.378,191.708l9.844,-42.597l5.098,-0l9.843,42.597l-5.976,0l-6.416,-33.867l-6.416,33.867l-5.977,0Zm6.299,-9.287l0,-5.244l12.627,-0l0,5.244l-12.627,0Z" style="fill:#fff;fill-rule:nonzero;"/>
    <path d="M322.288,191.708l-0,-5.273l7.002,-0c1.269,-0 2.246,-0.318 2.929,-0.952c0.684,-0.635 1.026,-1.519 1.026,-2.652l-0,-5.566c-0,-1.621 -0.386,-2.876 -1.158,-3.765c-0.771,-0.888 -1.801,-1.333 -3.09,-1.333l-6.709,0l-0,-5.273l6.709,-0c1.171,-0 2.08,-0.401 2.724,-1.201c0.645,-0.801 0.967,-1.934 0.967,-3.399l0,-4.336c0,-1.133 -0.322,-2.011 -0.967,-2.636c-0.644,-0.625 -1.533,-0.938 -2.666,-0.938l-6.767,0l-0,-5.273l6.679,-0c2.969,-0 5.259,0.742 6.87,2.226c1.612,1.485 2.417,3.584 2.417,6.299l0,4.512c0,2.011 -0.473,3.667 -1.42,4.965c-0.948,1.299 -2.281,2.125 -3.999,2.476c1.894,0.313 3.364,1.143 4.409,2.49c1.045,1.348 1.567,3.106 1.567,5.274l0,5.625c0,2.773 -0.786,4.922 -2.358,6.445c-1.573,1.524 -3.804,2.285 -6.695,2.285l-7.47,0Zm-3.516,0l0,-42.597l5.566,-0l0,42.597l-5.566,0Z" style="fill:#fff;fill-rule:nonzero;"/>
    <path d="M396.808,191.708l9.844,-42.597l5.098,-0l9.843,42.597l-5.976,0l-6.416,-33.867l-6.416,33.867l-5.977,0Zm6.299,-9.287l0,-5.244l12.627,-0l0,5.244l-12.627,0Z" style="fill:#fff;fill-rule:nonzero;"/>
    <path d="M488.936,192.148c-2.226,-0 -4.111,-0.386 -5.654,-1.158c-1.543,-0.771 -2.715,-1.904 -3.515,-3.398c-0.801,-1.494 -1.202,-3.315 -1.202,-5.464l0,-2.109l5.567,-0l-0,1.904c-0,1.543 0.415,2.73 1.245,3.56c0.83,0.83 2.016,1.245 3.559,1.245c1.504,-0 2.657,-0.415 3.457,-1.245c0.801,-0.83 1.202,-2.017 1.202,-3.56l-0,-3.721c-0,-1.152 -0.288,-2.085 -0.865,-2.797c-0.576,-0.713 -1.323,-1.324 -2.241,-1.832c-0.918,-0.507 -1.904,-0.996 -2.959,-1.464c-1.054,-0.469 -2.104,-0.987 -3.149,-1.553c-1.045,-0.567 -2.007,-1.255 -2.886,-2.066c-0.879,-0.81 -1.582,-1.816 -2.109,-3.017c-0.528,-1.201 -0.791,-2.691 -0.791,-4.468l-0,-2.461c-0,-3.183 0.888,-5.625 2.666,-7.324c1.777,-1.699 4.326,-2.549 7.646,-2.549c3.242,0 5.723,0.864 7.442,2.593c1.718,1.728 2.578,4.194 2.578,7.397l-0,2.227l-5.567,-0l0,-1.992c0,-1.563 -0.381,-2.754 -1.142,-3.574c-0.762,-0.821 -1.866,-1.231 -3.311,-1.231c-1.543,0 -2.72,0.391 -3.53,1.172c-0.811,0.781 -1.216,1.894 -1.216,3.34l0,2.666c0,1.25 0.313,2.251 0.938,3.003c0.625,0.752 1.44,1.377 2.446,1.875c1.006,0.498 2.065,1.001 3.179,1.508c0.996,0.45 1.987,0.923 2.973,1.421c0.987,0.498 1.895,1.114 2.725,1.846c0.83,0.733 1.494,1.685 1.992,2.857c0.498,1.171 0.747,2.656 0.747,4.453l0,3.896c0,3.223 -0.879,5.698 -2.637,7.427c-1.757,1.728 -4.287,2.593 -7.588,2.593Z" style="fill:#fff;fill-rule:nonzero;"/>
    <path d="M559.942,191.708l-0,-42.597l5.566,-0l-0,42.597l-5.566,0Zm2.9,0l-0,-5.273l15.381,-0l-0,5.273l-15.381,0Zm-0,-18.515l-0,-5.274l13.916,0l-0,5.274l-13.916,-0Zm-0,-18.809l-0,-5.273l15.381,-0l-0,5.273l-15.381,0Z" style="fill:#fff;fill-rule:nonzero;"/>
    <rect x="0" y="201.01" width="578.521" height="5.6" style="fill:#fff;"/>
    <rect x="0" y="134.209" width="578.521" height="5.6" style="fill:#fff;"/>
</svg>
