<svg width="20" height="20" viewBox="0 0 20 20" fill="none" xmlns="http://www.w3.org/2000/svg" >
<path fill-rule="evenodd" clip-rule="evenodd" d="M6.5 15.006C6.5 15.536 6.931 16 7.495 16C7.761 16 8.026 15.867 8.192 15.702L13.202 10.696C13.4 10.497 13.5 10.232 13.5 10C13.5 9.735 13.4 9.47 13.201 9.304L8.191 4.298C8.027 4.1 7.762 4 7.496 4C7.23235 4.00053 6.97962 4.10536 6.79301 4.2916C6.60639 4.47784 6.50106 4.73035 6.5 4.994C6.5 5.26 6.6 5.524 6.799 5.724L11.079 10L6.799 14.276C6.599 14.476 6.5 14.74 6.5 15.006Z" fill="#282D37"></path>
</svg>