<svg width="20" height="20" viewBox="0 0 20 20" fill="none" xmlns="http://www.w3.org/2000/svg">
<path fill-rule="evenodd" clip-rule="evenodd" d="M4.994 6.50001C4.73053 6.50107 4.47816 6.60627 4.29195 6.79267C4.10574 6.97907 4.00079 7.23154 4 7.49501C4 7.76101 4.133 8.02601 4.298 8.19201L9.304 13.202C9.503 13.4 9.768 13.5 10 13.5C10.2265 13.5041 10.4468 13.426 10.62 13.28L15.702 8.19201C15.901 8.02601 16 7.76101 16 7.49501C15.9992 7.23154 15.8943 6.97907 15.7081 6.79267C15.5218 6.60627 15.2695 6.50107 15.006 6.50001C14.74 6.50001 14.476 6.60001 14.276 6.79901L10 11.079L5.724 6.79901C5.628 6.70356 5.5141 6.62801 5.38882 6.5767C5.26355 6.52539 5.12937 6.49933 4.994 6.50001Z" fill="#282D37"></path>
</svg>