<svg viewBox="0 0 14 14" fill="none" xmlns="http://www.w3.org/2000/svg">
<g clip-path="url(#clip0_1222_2382)">
<path fill-rule="evenodd" clip-rule="evenodd" d="M1.50024 0C0.671817 0 0.000244141 0.671573 0.000244141 1.5V12.5C0.000244141 13.3284 0.671817 14 1.50024 14H4.00024C4.82867 14 5.50024 13.3284 5.50024 12.5V1.5C5.50024 0.671573 4.82867 0 4.00024 0H1.50024ZM7.5 6C6.94772 6 6.5 6.44772 6.5 7C6.5 7.55228 6.94772 8 7.5 8H10.5V9.5C10.5 9.70223 10.6218 9.88455 10.8087 9.96194C10.9955 10.0393 11.2106 9.99655 11.3536 9.85355L13.8536 7.35355C14.0488 7.15829 14.0488 6.84171 13.8536 6.64645L11.3536 4.14645C11.2106 4.00345 10.9955 3.96067 10.8087 4.03806C10.6218 4.11545 10.5 4.29777 10.5 4.5V6H7.5Z" fill="black"/>
</g>
<defs>
<clipPath id="clip0_1222_2382">
<rect fill="white"/>
</clipPath>
</defs>
</svg>
