<?xml version="1.0" encoding="UTF-8" standalone="no"?>
<!DOCTYPE svg PUBLIC "-//W3C//DTD SVG 1.1//EN" "http://www.w3.org/Graphics/SVG/1.1/DTD/svg11.dtd">
<svg width="100%" height="100%" viewBox="0 0 186 207" version="1.1" xmlns="http://www.w3.org/2000/svg" xmlns:xlink="http://www.w3.org/1999/xlink" xml:space="preserve" xmlns:serif="http://www.serif.com/" style="fill-rule:evenodd;clip-rule:evenodd;stroke-linejoin:round;stroke-miterlimit:2;">
    <path d="M170.276,103.463c5.466,7.162 9.521,15.159 9.521,23.592c0,1.212 -0.037,2.392 -0.113,3.541l5.376,0.328c0.487,2.335 0.291,15.089 -0.627,18.579l-10.645,-0.649c-2.58,3.875 -6.023,7.407 -10.39,10.798l13.156,4.387c-2.881,3.255 -14.646,11.84 -17.569,13.73l-15.241,-5.082c-4.251,2.704 -8.958,5.679 -13.769,8.709l13.769,7.721l-20.315,13.403l-14.322,-8.031c-11.044,6.907 -19.428,12.121 -19.428,12.121l-20.102,-10.782c13.97,-7.698 43.234,-23.864 62.998,-35.07c11.755,-6.665 21.969,-11.282 29.824,-24.068c4.52,-7.358 6.998,-17.631 7.877,-33.227Zm-120.911,79.136c-28.931,-8.162 -49.365,-27.581 -49.365,-47.544l-0,-105c-0,-18.244 35.346,-30.055 78.883,-30.055c43.536,-0 78.882,11.811 78.882,30.055l0,56.354l-0.08,-0c0.009,8.307 -0,8.361 -0,9.083c-0,41.483 -17.083,43.946 -33.286,53.012c-2.574,1.44 -34.417,14.549 -65.989,29.701c-4.754,2.282 -6.542,3.152 -9.045,4.394Zm94.138,-97.689c-5.973,11.447 -32.652,20.09 -64.62,20.09c-31.969,0 -58.648,-8.643 -64.621,-20.09l0,5.337c0,14.605 28.956,26.463 64.621,26.463c35.664,-0 64.62,-11.858 64.62,-26.463l-0,-5.337Zm-94.36,72.833c6.445,-3.09 13.005,-6.147 19.35,-9.052c-27.225,-1.636 -48.919,-9.6 -54.231,-19.781l0,5.337c0,10.215 14.164,19.086 34.881,23.496Zm94.36,-119.833c-5.973,11.447 -32.652,20.09 -64.62,20.09c-31.969,0 -58.648,-8.643 -64.621,-20.09l0,5.337c0,14.605 28.956,26.463 64.621,26.463c35.664,-0 64.62,-11.858 64.62,-26.463l-0,-5.337Z" style="fill:#ff9012;"/>
</svg>
